<svg width="23" height="13" viewBox="0 0 23 13" fill="none" xmlns="http://www.w3.org/2000/svg">
<path d="M8.46761 12.1364L1.25581 8.11405C-0.418602 7.17769 -0.418602 5.66104 1.25581 4.73786L8.46761 0.702273C10.142 -0.234091 12.8579 -0.234091 14.5324 0.702273L21.7442 4.72467C23.4186 5.66104 23.4186 7.17769 21.7442 8.10086L14.5324 12.1233C12.8579 13.0596 10.142 13.0596 8.46761 12.1364Z" fill="#56D3D2"/>
<path d="M11.3686 9.51511C10.8676 9.60743 10.3402 9.58106 9.7865 9.44917C9.23276 9.31729 8.70539 9.07991 8.20439 8.72382C7.46606 8.19629 7.07053 7.64239 6.99143 7.0753C6.92551 6.52139 7.20238 6.03343 7.83523 5.59821L9.45689 6.69284C9.23276 6.87748 9.1141 7.06211 9.1141 7.25993C9.1141 7.45775 9.23276 7.64239 9.47008 7.80064C9.68103 7.94572 9.90515 8.01165 10.1425 8.02484C10.3798 8.02484 10.5907 7.9721 10.7885 7.84021C10.9599 7.72152 11.0522 7.58964 11.0522 7.44457C11.0522 7.29949 11.0127 7.14124 10.9203 6.98298C10.8281 6.82472 10.683 6.62689 10.4984 6.37632C10.2348 6.02024 10.037 5.71691 9.90515 5.46634C9.7865 5.21575 9.76013 4.96518 9.83924 4.68823C9.91834 4.42446 10.1557 4.1607 10.5512 3.92331C10.9203 3.69911 11.3159 3.56723 11.7641 3.51447C12.2124 3.46173 12.6739 3.50128 13.1485 3.60679C13.6231 3.7123 14.0845 3.91012 14.5329 4.1607C15.2712 4.58273 15.7194 5.04431 15.8645 5.51908C16.0095 6.00705 15.8381 6.46864 15.3371 6.90384L13.5176 5.79603C13.6891 5.63778 13.7682 5.47953 13.755 5.32126C13.7418 5.16301 13.6231 5.01793 13.4122 4.88606C13.2276 4.78055 13.0298 4.7146 12.8189 4.70141C12.608 4.68823 12.4234 4.74098 12.2388 4.85968C12.0938 4.95199 12.0146 5.0575 12.0146 5.18939C12.0146 5.32126 12.0542 5.45315 12.1465 5.58503C12.2388 5.7301 12.3838 5.91473 12.5816 6.1785C12.8848 6.54777 13.0958 6.86429 13.2539 7.12805C13.399 7.405 13.4518 7.69514 13.399 8.02484C13.3462 8.35455 13.0958 8.67107 12.6607 8.9744C12.3047 9.26454 11.8697 9.43598 11.3686 9.51511Z" fill="white"/>
</svg>
