<svg width="86" height="21" viewBox="0 0 86 21" fill="none" xmlns="http://www.w3.org/2000/svg">
<path d="M1.49722 12.1757L1.49722 12.1757L1.49997 12.1742L8.71166 8.13867C9.45623 7.72229 10.4645 7.5 11.5 7.5C12.5355 7.5 13.5438 7.72229 14.2883 8.13867L14.2888 8.13894L21.5001 12.1611C22.2505 12.5807 22.5 13.0562 22.5 13.4177C22.5 13.7782 22.2517 14.2501 21.5028 14.663L21.5006 14.6642L14.2888 18.6866L14.2883 18.6869C13.5437 19.1033 12.5353 19.3256 11.4992 19.3272C10.4637 19.3287 9.4551 19.1096 8.71007 18.6992C8.70972 18.699 8.70937 18.6988 8.70903 18.6986L1.49985 14.6776C0.749546 14.2581 0.5 13.7825 0.5 13.421C0.5 13.0605 0.748282 12.5886 1.49722 12.1757Z" stroke="#0A0A0A"/>
<path d="M8.46761 15.1364L1.25581 11.114C-0.418602 10.1777 -0.418602 8.66104 1.25581 7.73786L8.46761 3.70227C10.142 2.76591 12.8579 2.76591 14.5324 3.70227L21.7442 7.72467C23.4186 8.66104 23.4186 10.1777 21.7442 11.1009L14.5324 15.1233C12.8579 16.0596 10.142 16.0596 8.46761 15.1364Z" fill="#56D3D2"/>
<path d="M11.3686 12.5151C10.8676 12.6074 10.3402 12.5811 9.7865 12.4492C9.23276 12.3173 8.70539 12.0799 8.20439 11.7238C7.46606 11.1963 7.07053 10.6424 6.99143 10.0753C6.92551 9.52139 7.20238 9.03343 7.83523 8.59821L9.45689 9.69284C9.23276 9.87748 9.1141 10.0621 9.1141 10.2599C9.1141 10.4578 9.23276 10.6424 9.47008 10.8006C9.68103 10.9457 9.90515 11.0117 10.1425 11.0248C10.3798 11.0248 10.5907 10.9721 10.7885 10.8402C10.9599 10.7215 11.0522 10.5896 11.0522 10.4446C11.0522 10.2995 11.0127 10.1412 10.9203 9.98298C10.8281 9.82472 10.683 9.62689 10.4984 9.37632C10.2348 9.02024 10.037 8.71691 9.90515 8.46634C9.7865 8.21575 9.76013 7.96518 9.83924 7.68823C9.91834 7.42446 10.1557 7.1607 10.5512 6.92331C10.9203 6.69911 11.3159 6.56723 11.7641 6.51447C12.2124 6.46173 12.6739 6.50128 13.1485 6.60679C13.6231 6.7123 14.0845 6.91012 14.5329 7.1607C15.2712 7.58273 15.7194 8.04431 15.8645 8.51908C16.0095 9.00705 15.8381 9.46864 15.3371 9.90384L13.5176 8.79603C13.6891 8.63778 13.7682 8.47953 13.755 8.32126C13.7418 8.16301 13.6231 8.01793 13.4122 7.88606C13.2276 7.78055 13.0298 7.7146 12.8189 7.70141C12.608 7.68823 12.4234 7.74098 12.2388 7.85968C12.0938 7.95199 12.0146 8.0575 12.0146 8.18939C12.0146 8.32126 12.0542 8.45315 12.1465 8.58503C12.2388 8.7301 12.3838 8.91473 12.5816 9.1785C12.8848 9.54777 13.0958 9.86429 13.2539 10.128C13.399 10.405 13.4518 10.6951 13.399 11.0248C13.3462 11.3546 13.0958 11.6711 12.6607 11.9744C12.3047 12.2645 11.8697 12.436 11.3686 12.5151Z" fill="white"/>
<path d="M32.752 16.192C31.9627 16.192 31.2427 16.064 30.592 15.808C29.952 15.5413 29.4347 15.1467 29.04 14.624C28.656 14.0907 28.448 13.4187 28.416 12.608H31.072C31.1147 12.9813 31.264 13.3173 31.52 13.616C31.7867 13.9147 32.1867 14.064 32.72 14.064C33.1787 14.064 33.52 13.9627 33.744 13.76C33.9787 13.5573 34.096 13.2907 34.096 12.96C34.096 12.8107 34.0693 12.672 34.016 12.544C33.9733 12.416 33.8827 12.2933 33.744 12.176C33.6053 12.048 33.392 11.92 33.104 11.792C32.8267 11.664 32.4533 11.5253 31.984 11.376C31.1093 11.0987 30.4267 10.7733 29.936 10.4C29.4453 10.0267 29.0987 9.62667 28.896 9.2C28.704 8.77333 28.608 8.336 28.608 7.888C28.6187 7.16267 28.8 6.56 29.152 6.08C29.504 5.58933 29.9733 5.22133 30.56 4.976C31.1467 4.73067 31.8027 4.608 32.528 4.608C33.2533 4.608 33.9147 4.736 34.512 4.992C35.12 5.23733 35.6107 5.60533 35.984 6.096C36.3573 6.58667 36.5493 7.19467 36.56 7.92H33.84C33.8293 7.632 33.7067 7.36 33.472 7.104C33.2373 6.848 32.8907 6.72 32.432 6.72C32.1013 6.73067 31.8187 6.82667 31.584 7.008C31.36 7.17867 31.248 7.424 31.248 7.744C31.248 8.02133 31.3653 8.26133 31.6 8.464C31.8347 8.66667 32.1653 8.85333 32.592 9.024C33.0293 9.19467 33.536 9.376 34.112 9.568C34.5493 9.71733 34.9333 9.89333 35.264 10.096C35.6053 10.288 35.888 10.5173 36.112 10.784C36.336 11.04 36.5067 11.3333 36.624 11.664C36.7413 11.9947 36.8 12.368 36.8 12.784C36.8 13.4667 36.624 14.064 36.272 14.576C35.9307 15.088 35.456 15.488 34.848 15.776C34.24 16.0533 33.5413 16.192 32.752 16.192ZM40.3444 16V6.976H37.1284V4.8H46.0884V6.976H42.8564V16H40.3444ZM44.8601 16L48.9241 4.8H51.8201L55.9001 16H53.2281L52.4441 13.68H48.2841L47.4841 16H44.8601ZM48.9881 11.664H51.7561L50.3481 7.584L48.9881 11.664ZM61.1235 16.192C59.9608 16.192 58.9688 15.9467 58.1475 15.456C57.3262 14.9547 56.6968 14.272 56.2595 13.408C55.8328 12.544 55.6195 11.552 55.6195 10.432C55.6195 9.312 55.8275 8.31467 56.2435 7.44C56.6702 6.55467 57.2942 5.86133 58.1155 5.36C58.9368 4.85867 59.9395 4.608 61.1235 4.608C62.5102 4.608 63.6515 4.96 64.5475 5.664C65.4435 6.35733 65.9928 7.344 66.1955 8.624H63.4275C63.3208 8.08 63.0595 7.65867 62.6435 7.36C62.2382 7.06133 61.7155 6.912 61.0755 6.912C60.5208 6.912 60.0248 7.04533 59.5875 7.312C59.1502 7.568 58.8088 7.95733 58.5635 8.48C58.3182 8.992 58.1955 9.64267 58.1955 10.432C58.1955 11.2 58.3128 11.8453 58.5475 12.368C58.7928 12.88 59.1342 13.2693 59.5715 13.536C60.0088 13.792 60.5102 13.92 61.0755 13.92C61.7155 13.92 62.2382 13.7867 62.6435 13.52C63.0595 13.2427 63.3208 12.8533 63.4275 12.352H66.1955C65.9928 13.5467 65.4435 14.4853 64.5475 15.168C63.6515 15.8507 62.5102 16.192 61.1235 16.192ZM76.465 4.8L72.545 9.056L76.913 16H73.985L70.881 10.832L69.905 11.904V16H67.377V4.8H69.905V8.592L73.361 4.8H76.465ZM80.9708 16.192C80.1814 16.192 79.4614 16.064 78.8108 15.808C78.1708 15.5413 77.6534 15.1467 77.2588 14.624C76.8748 14.0907 76.6668 13.4187 76.6348 12.608H79.2908C79.3334 12.9813 79.4828 13.3173 79.7388 13.616C80.0054 13.9147 80.4054 14.064 80.9388 14.064C81.3974 14.064 81.7388 13.9627 81.9628 13.76C82.1974 13.5573 82.3148 13.2907 82.3148 12.96C82.3148 12.8107 82.2881 12.672 82.2348 12.544C82.1921 12.416 82.1014 12.2933 81.9628 12.176C81.8241 12.048 81.6108 11.92 81.3228 11.792C81.0454 11.664 80.6721 11.5253 80.2028 11.376C79.3281 11.0987 78.6454 10.7733 78.1548 10.4C77.6641 10.0267 77.3174 9.62667 77.1148 9.2C76.9228 8.77333 76.8268 8.336 76.8268 7.888C76.8374 7.16267 77.0188 6.56 77.3708 6.08C77.7228 5.58933 78.1921 5.22133 78.7788 4.976C79.3654 4.73067 80.0214 4.608 80.7468 4.608C81.4721 4.608 82.1334 4.736 82.7308 4.992C83.3388 5.23733 83.8294 5.60533 84.2028 6.096C84.5761 6.58667 84.7681 7.19467 84.7788 7.92H82.0588C82.0481 7.632 81.9254 7.36 81.6908 7.104C81.4561 6.848 81.1094 6.72 80.6508 6.72C80.3201 6.73067 80.0374 6.82667 79.8028 7.008C79.5788 7.17867 79.4668 7.424 79.4668 7.744C79.4668 8.02133 79.5841 8.26133 79.8188 8.464C80.0534 8.66667 80.3841 8.85333 80.8108 9.024C81.2481 9.19467 81.7548 9.376 82.3308 9.568C82.7681 9.71733 83.1521 9.89333 83.4828 10.096C83.8241 10.288 84.1068 10.5173 84.3308 10.784C84.5548 11.04 84.7254 11.3333 84.8428 11.664C84.9601 11.9947 85.0188 12.368 85.0188 12.784C85.0188 13.4667 84.8428 14.064 84.4908 14.576C84.1494 15.088 83.6748 15.488 83.0668 15.776C82.4588 16.0533 81.7601 16.192 80.9708 16.192Z" fill="#0A0A0A"/>
</svg>
