<svg width="700" height="320" viewBox="0 0 700 320" fill="none" xmlns="http://www.w3.org/2000/svg">
<g clip-path="url(#clip0_1061_4081)">
<mask id="mask0_1061_4081" style="mask-type:luminance" maskUnits="userSpaceOnUse" x="0" y="0" width="700" height="320">
<path d="M684 0H16C7.16344 0 0 7.16344 0 16V304C0 312.837 7.16344 320 16 320H684C692.837 320 700 312.837 700 304V16C700 7.16344 692.837 0 684 0Z" fill="white"/>
</mask>
<g mask="url(#mask0_1061_4081)">
<path d="M684 0H16C7.16344 0 0 7.16344 0 16V304C0 312.837 7.16344 320 16 320H684C692.837 320 700 312.837 700 304V16C700 7.16344 692.837 0 684 0Z" fill="url(#paint0_linear_1061_4081)"/>
<path d="M311.889 247.3C283.097 247.215 258.226 231.466 246.292 201.629C234.357 171.793 238.02 134.523 253.414 101.112C282.206 101.197 307.077 116.945 319.011 146.782C330.946 176.619 327.283 213.888 311.889 247.3Z" fill="white"/>
<path d="M311.889 247.3C283.097 247.215 258.226 231.466 246.292 201.629C234.357 171.793 238.02 134.523 253.414 101.112C282.206 101.197 307.077 116.945 319.011 146.782C330.946 176.619 327.283 213.888 311.889 247.3Z" fill="url(#paint1_radial_1061_4081)"/>
<g style="mix-blend-mode:hard-light">
<path d="M311.889 247.3C283.097 247.215 258.226 231.466 246.292 201.629C234.357 171.793 238.02 134.523 253.414 101.112C282.206 101.197 307.077 116.945 319.011 146.782C330.946 176.619 327.283 213.888 311.889 247.3Z" fill="black" fill-opacity="0.5"/>
</g>
<path style="mix-blend-mode:hard-light" d="M311.889 247.3C283.097 247.215 258.226 231.466 246.292 201.629C234.357 171.793 238.02 134.523 253.414 101.112C282.206 101.197 307.077 116.945 319.011 146.782C330.946 176.619 327.283 213.888 311.889 247.3Z" fill="url(#paint2_linear_1061_4081)" fill-opacity="0.5"/>
<path d="M311.72 247.034C283.108 246.887 258.409 231.208 246.538 201.531C234.656 171.825 238.271 134.702 253.583 101.377C282.195 101.524 306.894 117.203 318.765 146.88C330.647 176.586 327.031 213.709 311.72 247.034Z" stroke="url(#paint3_linear_1061_4081)" stroke-opacity="0.05" stroke-width="0.530516"/>
<path d="M305.839 247.174C343.92 237.419 377.154 210.619 393.585 171.64C410.017 132.661 405.98 90.1988 386.347 56.1934C348.266 65.9477 315.032 92.7486 298.601 131.728C282.169 170.706 286.206 213.168 305.839 247.174Z" fill="white"/>
<path d="M305.839 247.174C343.92 237.419 377.154 210.619 393.585 171.64C410.017 132.661 405.98 90.1988 386.347 56.1934C348.266 65.9477 315.032 92.7486 298.601 131.728C282.169 170.706 286.206 213.168 305.839 247.174Z" fill="url(#paint4_radial_1061_4081)"/>
<path d="M393.341 171.537C376.971 210.369 343.89 237.091 305.969 246.867C286.462 212.959 282.476 170.663 298.845 131.831C315.215 92.9978 348.295 66.2765 386.217 56.5004C405.724 90.4077 409.71 132.704 393.341 171.537Z" stroke="url(#paint5_linear_1061_4081)" stroke-opacity="0.05" stroke-width="0.530516"/>
<path d="M305.686 246.995C329.749 266.114 361.965 272.832 393.67 262.129C425.376 251.426 449.499 225.691 461.03 194.556C436.967 175.437 404.751 168.719 373.045 179.422C341.34 190.125 317.217 215.86 305.686 246.995Z" fill="white"/>
<path d="M305.686 246.995C329.749 266.114 361.965 272.832 393.67 262.129C425.376 251.426 449.499 225.691 461.03 194.556C436.967 175.437 404.751 168.719 373.045 179.422C341.34 190.125 317.217 215.86 305.686 246.995Z" fill="url(#paint6_radial_1061_4081)"/>
<g style="mix-blend-mode:hard-light">
<path d="M305.686 246.995C329.749 266.114 361.965 272.832 393.67 262.129C425.376 251.426 449.499 225.691 461.03 194.556C436.967 175.437 404.751 168.719 373.045 179.422C341.34 190.125 317.217 215.86 305.686 246.995Z" fill="black" fill-opacity="0.2"/>
</g>
<path style="mix-blend-mode:hard-light" d="M305.686 246.995C329.749 266.114 361.965 272.832 393.67 262.129C425.376 251.426 449.499 225.691 461.03 194.556C436.967 175.437 404.751 168.719 373.045 179.422C341.34 190.125 317.217 215.86 305.686 246.995Z" fill="url(#paint7_linear_1061_4081)" fill-opacity="0.5"/>
<path d="M393.586 261.878C362.034 272.529 329.98 265.88 306.002 246.907C317.534 215.919 341.57 190.327 373.13 179.673C404.681 169.023 436.735 175.671 460.714 194.644C449.181 225.632 425.145 251.224 393.586 261.878Z" stroke="url(#paint8_linear_1061_4081)" stroke-opacity="0.05" stroke-width="0.530516"/>
<g opacity="0.8" filter="url(#filter0_f_1061_4081)">
<path d="M660 100C748.366 100 820 28.3656 820 -60C820 -148.366 748.366 -220 660 -220C571.634 -220 500 -148.366 500 -60C500 28.3656 571.634 100 660 100Z" fill="#0FEBE9"/>
</g>
<g opacity="0.8" filter="url(#filter1_f_1061_4081)">
<path d="M20 373C108.366 373 180 301.366 180 213C180 124.634 108.366 53 20 53C-68.3656 53 -140 124.634 -140 213C-140 301.366 -68.3656 373 20 373Z" fill="#18CAE2" fill-opacity="0.33"/>
</g>
<g opacity="0.8" filter="url(#filter2_f_1061_4081)">
</g>
<g opacity="0.8" filter="url(#filter3_f_1061_4081)">
<path d="M20 573C108.366 573 180 501.366 180 413C180 324.634 108.366 253 20 253C-68.3656 253 -140 324.634 -140 413C-140 501.366 -68.3656 573 20 573Z" fill="#4018E2" fill-opacity="0.22"/>
</g>
<path opacity="0.2" d="M0 50H700" stroke="url(#paint9_radial_1061_4081)" stroke-dasharray="4 4"/>
<path opacity="0.1" d="M0 82H700" stroke="url(#paint10_radial_1061_4081)" stroke-dasharray="4 4"/>
<path opacity="0.2" d="M239 0V320" stroke="url(#paint11_radial_1061_4081)" stroke-dasharray="4 4"/>
<path opacity="0.1" d="M271 0V320" stroke="url(#paint12_radial_1061_4081)" stroke-dasharray="4 4"/>
<path opacity="0.2" d="M461 0V320" stroke="url(#paint13_radial_1061_4081)" stroke-dasharray="4 4"/>
<path opacity="0.1" d="M429 0V320" stroke="url(#paint14_radial_1061_4081)" stroke-dasharray="4 4"/>
<path opacity="0.2" d="M0 271H700" stroke="url(#paint15_radial_1061_4081)" stroke-dasharray="4 4"/>
<path opacity="0.1" d="M0 239H700" stroke="url(#paint16_radial_1061_4081)" stroke-dasharray="4 4"/>
<g style="mix-blend-mode:overlay" opacity="0.1">
<path d="M0 160H700" stroke="url(#paint17_linear_1061_4081)"/>
</g>
<g style="mix-blend-mode:overlay" opacity="0.2">
<path d="M511 -1L189 321" stroke="url(#paint18_linear_1061_4081)"/>
</g>
<g style="mix-blend-mode:overlay" opacity="0.2">
<path d="M511 321L189 -1" stroke="url(#paint19_linear_1061_4081)"/>
</g>
<g style="mix-blend-mode:overlay" opacity="0.1">
<path d="M350 271C411.304 271 461 221.304 461 160C461 98.6964 411.304 49 350 49C288.696 49 239 98.6964 239 160C239 221.304 288.696 271 350 271Z" stroke="white"/>
</g>
<g style="mix-blend-mode:overlay" opacity="0.1">
<path d="M350 239C393.63 239 429 203.63 429 160C429 116.37 393.63 81 350 81C306.37 81 271 116.37 271 160C271 203.63 306.37 239 350 239Z" stroke="white"/>
</g>
</g>
</g>
<rect x="0.5" y="0.5" width="699" height="319" stroke="black"/>
<defs>
<filter id="filter0_f_1061_4081" x="260" y="-460" width="800" height="800" filterUnits="userSpaceOnUse" color-interpolation-filters="sRGB">
<feFlood flood-opacity="0" result="BackgroundImageFix"/>
<feBlend mode="normal" in="SourceGraphic" in2="BackgroundImageFix" result="shape"/>
<feGaussianBlur stdDeviation="120" result="effect1_foregroundBlur_1061_4081"/>
</filter>
<filter id="filter1_f_1061_4081" x="-380" y="-187" width="800" height="800" filterUnits="userSpaceOnUse" color-interpolation-filters="sRGB">
<feFlood flood-opacity="0" result="BackgroundImageFix"/>
<feBlend mode="normal" in="SourceGraphic" in2="BackgroundImageFix" result="shape"/>
<feGaussianBlur stdDeviation="120" result="effect1_foregroundBlur_1061_4081"/>
</filter>
<filter id="filter2_f_1061_4081" x="260" y="80" width="800" height="800" filterUnits="userSpaceOnUse" color-interpolation-filters="sRGB">
<feFlood flood-opacity="0" result="BackgroundImageFix"/>
<feBlend mode="normal" in="SourceGraphic" in2="BackgroundImageFix" result="shape"/>
<feGaussianBlur stdDeviation="120" result="effect1_foregroundBlur_1061_4081"/>
</filter>
<filter id="filter3_f_1061_4081" x="-380" y="13" width="800" height="800" filterUnits="userSpaceOnUse" color-interpolation-filters="sRGB">
<feFlood flood-opacity="0" result="BackgroundImageFix"/>
<feBlend mode="normal" in="SourceGraphic" in2="BackgroundImageFix" result="shape"/>
<feGaussianBlur stdDeviation="120" result="effect1_foregroundBlur_1061_4081"/>
</filter>
<linearGradient id="paint0_linear_1061_4081" x1="1.27814e-05" y1="320" x2="710.784" y2="26.0793" gradientUnits="userSpaceOnUse">
<stop stop-color="#1C4A5A" stop-opacity="0.09"/>
<stop offset="0.729167" stop-color="#55D3D2" stop-opacity="0.08"/>
</linearGradient>
<radialGradient id="paint1_radial_1061_4081" cx="0" cy="0" r="1" gradientUnits="userSpaceOnUse" gradientTransform="translate(208.697 189.703) rotate(-10.029) scale(169.097 167.466)">
<stop stop-color="#55D3D2"/>
<stop offset="1" stop-color="#1C4A5A"/>
</radialGradient>
<linearGradient id="paint2_linear_1061_4081" x1="306.587" y1="93.5598" x2="252.341" y2="224.228" gradientUnits="userSpaceOnUse">
<stop stop-color="#55D3D2"/>
<stop offset="1"/>
</linearGradient>
<linearGradient id="paint3_linear_1061_4081" x1="311.84" y1="123.717" x2="253.579" y2="224.761" gradientUnits="userSpaceOnUse">
<stop/>
<stop offset="1" stop-opacity="0"/>
</linearGradient>
<radialGradient id="paint4_radial_1061_4081" cx="0" cy="0" r="1" gradientUnits="userSpaceOnUse" gradientTransform="translate(313.407 243.64) rotate(-75.7542) scale(203.632 223.902)">
<stop stop-color="#1C4A5A"/>
<stop offset="0.712616" stop-color="#0FEBE9"/>
</radialGradient>
<linearGradient id="paint5_linear_1061_4081" x1="308.586" y1="102.284" x2="383.487" y2="201.169" gradientUnits="userSpaceOnUse">
<stop/>
<stop offset="1" stop-opacity="0"/>
</linearGradient>
<radialGradient id="paint6_radial_1061_4081" cx="0" cy="0" r="1" gradientUnits="userSpaceOnUse" gradientTransform="translate(311.446 249.925) rotate(-20.3524) scale(174.776 163.096)">
<stop stop-color="#1C4A5A"/>
<stop offset="1" stop-color="#55D3D2"/>
</radialGradient>
<linearGradient id="paint7_linear_1061_4081" x1="395.842" y1="169.781" x2="332.121" y2="263.82" gradientUnits="userSpaceOnUse">
<stop stop-color="#00B1BC"/>
<stop offset="1"/>
</linearGradient>
<linearGradient id="paint8_linear_1061_4081" x1="395.842" y1="169.781" x2="370.99" y2="271.799" gradientUnits="userSpaceOnUse">
<stop/>
<stop offset="1" stop-opacity="0"/>
</linearGradient>
<radialGradient id="paint9_radial_1061_4081" cx="0" cy="0" r="1" gradientUnits="userSpaceOnUse" gradientTransform="translate(-nan -nan) rotate(-nan) scale(-nan -nan)">
<stop offset="0.348958" stop-color="#84FFD3"/>
<stop offset="0.880208" stop-color="#18E299" stop-opacity="0"/>
</radialGradient>
<radialGradient id="paint10_radial_1061_4081" cx="0" cy="0" r="1" gradientUnits="userSpaceOnUse" gradientTransform="translate(-nan -nan) rotate(-nan) scale(-nan -nan)">
<stop offset="0.348958" stop-color="#84FFD3"/>
<stop offset="0.880208" stop-color="#18E299" stop-opacity="0"/>
</radialGradient>
<radialGradient id="paint11_radial_1061_4081" cx="0" cy="0" r="1" gradientUnits="userSpaceOnUse" gradientTransform="translate(-nan -nan) rotate(-nan) scale(-nan -nan)">
<stop offset="0.348958" stop-color="#84FFD3"/>
<stop offset="0.880208" stop-color="#18E299" stop-opacity="0"/>
</radialGradient>
<radialGradient id="paint12_radial_1061_4081" cx="0" cy="0" r="1" gradientUnits="userSpaceOnUse" gradientTransform="translate(-nan -nan) rotate(-nan) scale(-nan -nan)">
<stop offset="0.348958" stop-color="#84FFD3"/>
<stop offset="0.880208" stop-color="#18E299" stop-opacity="0"/>
</radialGradient>
<radialGradient id="paint13_radial_1061_4081" cx="0" cy="0" r="1" gradientUnits="userSpaceOnUse" gradientTransform="translate(-nan -nan) rotate(-nan) scale(-nan -nan)">
<stop offset="0.348958" stop-color="#84FFD3"/>
<stop offset="0.880208" stop-color="#18E299" stop-opacity="0"/>
</radialGradient>
<radialGradient id="paint14_radial_1061_4081" cx="0" cy="0" r="1" gradientUnits="userSpaceOnUse" gradientTransform="translate(-nan -nan) rotate(-nan) scale(-nan -nan)">
<stop offset="0.348958" stop-color="#84FFD3"/>
<stop offset="0.880208" stop-color="#18E299" stop-opacity="0"/>
</radialGradient>
<radialGradient id="paint15_radial_1061_4081" cx="0" cy="0" r="1" gradientUnits="userSpaceOnUse" gradientTransform="translate(-nan -nan) rotate(-nan) scale(-nan -nan)">
<stop offset="0.348958" stop-color="#84FFD3"/>
<stop offset="0.880208" stop-color="#18E299" stop-opacity="0"/>
</radialGradient>
<radialGradient id="paint16_radial_1061_4081" cx="0" cy="0" r="1" gradientUnits="userSpaceOnUse" gradientTransform="translate(-nan -nan) rotate(-nan) scale(-nan -nan)">
<stop offset="0.348958" stop-color="#84FFD3"/>
<stop offset="0.880208" stop-color="#18E299" stop-opacity="0"/>
</radialGradient>
<linearGradient id="paint17_linear_1061_4081" x1="-nan" y1="-nan" x2="-nan" y2="-nan" gradientUnits="userSpaceOnUse">
<stop stop-color="white" stop-opacity="0.1"/>
<stop offset="0.5" stop-color="white"/>
<stop offset="1" stop-color="white" stop-opacity="0.1"/>
</linearGradient>
<linearGradient id="paint18_linear_1061_4081" x1="511" y1="-1" x2="189" y2="321" gradientUnits="userSpaceOnUse">
<stop stop-color="white" stop-opacity="0.1"/>
<stop offset="0.5" stop-color="white"/>
<stop offset="1" stop-color="white" stop-opacity="0.1"/>
</linearGradient>
<linearGradient id="paint19_linear_1061_4081" x1="511" y1="321" x2="189" y2="-1" gradientUnits="userSpaceOnUse">
<stop stop-color="white" stop-opacity="0.1"/>
<stop offset="0.5" stop-color="white"/>
<stop offset="1" stop-color="white" stop-opacity="0.1"/>
</linearGradient>
<clipPath id="clip0_1061_4081">
<rect width="700" height="320" fill="white"/>
</clipPath>
</defs>
</svg>
